<?xml version="1.0" standalone="no"?>
<!DOCTYPE svg PUBLIC "-//W3C//DTD SVG 20010904//EN"
 "http://www.w3.org/TR/2001/REC-SVG-20010904/DTD/svg10.dtd">
<svg version="1.0" xmlns="http://www.w3.org/2000/svg"
 width="736.000000pt" height="736.000000pt" viewBox="0 0 736.000000 736.000000"
 preserveAspectRatio="xMidYMid meet">
<metadata>
Created by potrace 1.14, written by Peter Selinger 2001-2017
</metadata>
<g transform="translate(0.000000,736.000000) scale(0.100000,-0.100000)"
fill="#000000" stroke="none">
<path d="M3405 5960 c19 -43 25 -72 25 -132 0 -126 -42 -219 -210 -458 -152
-218 -191 -305 -191 -428 0 -56 5 -84 25 -128 34 -74 130 -172 241 -246 109
-73 107 -71 70 -63 -126 28 -265 93 -328 153 l-28 26 -63 -67 c-126 -134 -228
-311 -267 -466 -26 -105 -23 -138 32 -301 36 -109 42 -137 42 -215 1 -110 -17
-181 -85 -340 -43 -101 -52 -130 -52 -181 0 -106 66 -191 158 -201 59 -7 90 1
122 34 39 39 54 84 54 165 0 62 -6 85 -36 153 -120 266 -145 359 -124 457 13
65 48 125 95 167 80 70 255 136 472 176 388 72 485 109 685 257 194 143 259
311 164 419 -70 80 -188 128 -361 149 -155 19 -336 -1 -528 -56 -49 -14 -91
-23 -94 -20 -10 10 16 109 46 172 15 32 69 121 120 197 162 245 196 330 189
472 -4 71 -10 95 -41 158 -21 43 -61 100 -97 138 l-60 64 25 -55z m479 -1165
c209 -37 296 -150 224 -290 -32 -61 -167 -173 -275 -229 -49 -25 -40 -13 20
26 112 75 207 196 207 266 0 67 -71 146 -162 180 -78 29 -207 46 -312 39 -100
-5 -103 -2 -11 12 92 13 222 12 309 -4z m-1149 -1737 c28 -33 32 -63 11 -71
-38 -15 -76 61 -76 150 l0 38 20 -44 c11 -23 31 -56 45 -73z"/>
<path d="M3638 5080 c-80 -10 -187 -33 -243 -54 -52 -19 -47 -19 71 -1 235 35
490 7 649 -72 134 -67 207 -149 225 -255 46 -264 -197 -516 -630 -653 -45 -14
-177 -43 -293 -65 -116 -22 -243 -49 -282 -59 -70 -20 -145 -48 -145 -55 0 -2
30 3 66 10 36 8 166 23 287 34 366 34 495 60 713 146 193 75 245 58 252 -81
10 -182 -106 -346 -313 -445 -123 -58 -206 -75 -370 -75 -114 1 -156 5 -225
24 -99 26 -250 95 -324 147 l-51 36 40 -41 c50 -53 151 -128 230 -172 33 -18
77 -48 99 -67 216 -191 751 -77 936 200 21 32 42 73 46 90 3 18 24 59 45 90
33 48 65 74 203 168 185 125 277 204 340 294 161 226 180 451 46 526 -40 22
-56 25 -150 24 -82 -1 -124 -7 -193 -28 -48 -14 -89 -26 -92 -26 -3 0 -5 13
-5 28 0 43 -47 128 -93 168 -151 132 -510 202 -839 164z m1224 -490 c20 -6 47
-23 59 -38 18 -23 20 -36 16 -82 -12 -133 -129 -284 -302 -388 l-88 -53 7 33
c28 135 31 264 10 419 l-6 46 77 28 c119 44 168 51 227 35z"/>
<path d="M2899 2442 c-24 -21 -32 -38 -36 -75 -5 -41 -8 -47 -29 -47 -20 0
-24 -5 -24 -30 0 -25 4 -30 25 -30 l25 0 0 -140 0 -140 40 0 40 0 0 140 0 140
35 0 c32 0 35 2 35 30 0 28 -3 30 -35 30 -32 0 -35 2 -35 29 0 34 30 61 67 61
19 0 23 5 23 30 0 29 -1 30 -50 30 -40 0 -56 -5 -81 -28z"/>
<path d="M3910 2226 l0 -246 30 0 30 0 -2 243 -3 242 -27 3 -28 3 0 -245z"/>
<path d="M1856 2436 c-84 -31 -126 -106 -126 -225 0 -88 15 -135 56 -180 82
-91 242 -73 293 33 30 61 28 68 -21 64 -36 -2 -44 -7 -46 -25 -5 -32 -49 -63
-89 -63 -78 0 -107 46 -108 170 0 106 21 150 78 164 53 14 88 -1 110 -47 17
-33 22 -37 58 -37 44 0 45 5 13 75 -31 65 -138 100 -218 71z"/>
<path d="M2394 2316 c-39 -17 -74 -54 -74 -78 0 -14 8 -18 40 -18 22 0 40 4
40 9 0 17 31 41 54 41 30 0 54 -20 62 -52 6 -27 5 -28 -32 -28 -69 -1 -118
-17 -148 -51 -78 -88 39 -210 146 -151 30 16 38 17 38 6 0 -10 13 -14 43 -14
l42 0 -6 134 c-4 104 -9 140 -23 161 -33 50 -118 69 -182 41z m124 -208 c4
-37 -29 -68 -72 -68 -41 0 -60 21 -52 55 8 30 38 45 86 42 30 -2 35 -6 38 -29z"/>
<path d="M3305 2312 c-50 -23 -73 -57 -87 -125 -19 -95 17 -172 97 -202 57
-22 123 -13 166 22 l30 26 -20 20 c-19 19 -21 19 -45 4 -37 -25 -98 -22 -123
6 -12 12 -23 31 -25 42 -3 19 3 20 107 21 l110 1 -2 51 c-4 92 -45 141 -126
149 -28 2 -56 -3 -82 -15z m113 -65 c6 -6 13 -24 17 -40 l7 -27 -71 0 c-78 0
-88 11 -55 58 17 25 84 31 102 9z"/>
<path d="M4305 2316 c-63 -29 -95 -85 -95 -167 0 -63 19 -108 59 -142 66 -55
158 -44 215 26 29 36 31 45 31 117 0 84 -12 112 -67 153 -33 25 -104 31 -143
13z m99 -47 c33 -15 56 -66 56 -121 0 -81 -50 -136 -115 -124 -49 9 -75 53
-75 124 0 105 57 156 134 121z"/>
<path d="M4820 2313 c-55 -28 -83 -91 -77 -175 5 -79 29 -126 77 -151 37 -19
101 -17 127 5 20 16 26 3 19 -37 -12 -61 -82 -83 -145 -44 -31 19 -35 19 -50
4 -15 -15 -14 -18 9 -35 76 -60 198 -42 234 34 13 28 16 69 16 220 l0 186 -24
0 c-13 0 -27 -7 -30 -16 -6 -15 -8 -15 -25 0 -29 26 -90 30 -131 9z m124 -54
c25 -19 26 -25 26 -108 0 -96 -8 -113 -61 -126 -83 -21 -138 97 -94 200 22 55
82 71 129 34z"/>
<path d="M5375 2323 c-66 -18 -105 -82 -105 -173 0 -85 27 -135 87 -162 63
-28 125 -18 169 26 76 76 67 226 -17 289 -27 19 -97 30 -134 20z m105 -71 c91
-92 6 -279 -101 -222 -35 19 -51 67 -47 138 4 55 8 68 32 88 38 33 80 31 116
-4z"/>
<path d="M2780 1701 c0 -105 1 -111 20 -111 20 0 21 5 18 107 -3 93 -5 108
-20 111 -16 3 -18 -7 -18 -107z"/>
<path d="M2542 1780 c-38 -35 -22 -72 43 -100 50 -21 61 -35 45 -55 -17 -21
-47 -19 -67 5 -20 23 -43 26 -43 7 0 -36 68 -65 112 -48 67 25 52 87 -28 121
-46 20 -52 28 -32 48 18 18 39 15 65 -9 21 -21 23 -21 29 -4 18 46 -82 74
-124 35z"/>
<path d="M3967 1793 c-4 -3 -7 -51 -7 -105 0 -91 1 -98 20 -98 17 0 20 7 20
45 l0 45 45 0 45 0 0 -45 c0 -38 3 -45 20 -45 19 0 20 7 20 106 0 95 -2 105
-17 102 -11 -2 -19 -13 -20 -28 0 -14 -1 -33 -2 -42 -1 -14 -10 -18 -46 -18
l-45 0 0 45 c0 43 -14 58 -33 38z"/>
<path d="M2960 1737 c-34 -17 -50 -79 -29 -115 20 -36 70 -50 103 -29 48 32
42 122 -10 146 -31 14 -33 14 -64 -2z m51 -27 c13 -7 19 -21 19 -44 0 -40 -24
-65 -48 -49 -21 12 -28 69 -11 89 14 17 15 17 40 4z"/>
<path d="M3201 1738 c-11 -4 -24 -23 -30 -44 -19 -68 24 -126 80 -109 25 8 22
-13 -4 -29 -12 -8 -23 -7 -38 2 -23 15 -34 10 -26 -11 8 -21 54 -29 85 -15 32
16 38 38 34 132 l-4 74 -39 4 c-21 2 -48 0 -58 -4z m69 -71 c0 -31 -14 -57
-31 -57 -4 0 -15 7 -23 16 -35 34 -5 105 35 84 13 -7 19 -21 19 -43z"/>
<path d="M3443 1738 c-29 -14 -38 -38 -15 -38 10 0 23 5 29 11 15 15 43 4 43
-16 0 -9 -9 -15 -26 -15 -41 0 -64 -18 -64 -50 0 -38 26 -52 84 -44 l46 7 0
56 c0 32 -6 65 -12 74 -17 21 -58 29 -85 15z m57 -97 c0 -22 -29 -36 -43 -22
-15 15 0 41 23 41 13 0 20 -7 20 -19z"/>
<path d="M3727 1743 c-3 -3 -22 -5 -41 -5 l-36 0 0 -74 c0 -59 3 -74 15 -74
11 0 15 12 15 49 0 53 19 84 45 75 11 -5 15 -22 15 -65 0 -52 2 -59 20 -59 18
0 20 7 20 56 0 30 -4 63 -10 73 -10 20 -35 33 -43 24z"/>
<path d="M4283 1740 c-48 -19 -58 -95 -18 -135 27 -28 62 -32 90 -12 24 18 11
41 -16 27 -13 -8 -25 -7 -39 0 -34 18 -22 30 30 30 46 0 50 2 50 24 0 47 -53
83 -97 66z m45 -32 c19 -19 14 -28 -18 -28 -16 0 -30 4 -30 8 0 9 21 32 30 32
3 0 11 -5 18 -12z"/>
<path d="M4518 1743 l-38 -4 0 -74 c0 -53 4 -74 14 -78 22 -9 26 2 26 61 0 45
3 55 20 59 11 3 20 14 20 24 0 11 -1 18 -2 17 -2 -1 -20 -3 -40 -5z"/>
<path d="M4693 1738 c-28 -14 -47 -59 -38 -97 7 -35 20 -47 58 -56 33 -9 86
20 68 38 -7 7 -15 6 -26 -3 -12 -10 -21 -10 -40 -2 -40 18 -29 32 25 32 48 0
50 1 50 28 0 47 -54 81 -97 60z m57 -44 c0 -9 -11 -14 -30 -14 -34 0 -36 3
-15 24 18 17 45 11 45 -10z"/>
</g>
</svg>
